<svg width="529" height="68" viewBox="0 0 529 68" fill="none" xmlns="http://www.w3.org/2000/svg">
<path d="M28 6.328V13.56H9.376V25.016H23.648V32.12H9.376V51H0.416V6.328H28ZM67.3135 32.504C67.3135 33.784 67.2282 34.936 67.0575 35.96H41.1375C41.3508 38.52 42.2468 40.5253 43.8255 41.976C45.4042 43.4267 47.3455 44.152 49.6495 44.152C52.9775 44.152 55.3455 42.7227 56.7535 39.864H66.4175C65.3935 43.2773 63.4308 46.0933 60.5295 48.312C57.6282 50.488 54.0655 51.576 49.8415 51.576C46.4282 51.576 43.3562 50.8293 40.6255 49.336C37.9375 47.8 35.8255 45.6453 34.2895 42.872C32.7962 40.0987 32.0495 36.8987 32.0495 33.272C32.0495 29.6027 32.7962 26.3813 34.2895 23.608C35.7828 20.8347 37.8735 18.7013 40.5615 17.208C43.2495 15.7147 46.3428 14.968 49.8415 14.968C53.2122 14.968 56.2202 15.6933 58.8655 17.144C61.5535 18.5947 63.6228 20.664 65.0735 23.352C66.5668 25.9973 67.3135 29.048 67.3135 32.504ZM58.0335 29.944C57.9908 27.64 57.1588 25.8053 55.5375 24.44C53.9162 23.032 51.9322 22.328 49.5855 22.328C47.3668 22.328 45.4895 23.0107 43.9535 24.376C42.4602 25.6987 41.5428 27.5547 41.2015 29.944H58.0335ZM71.5495 33.144C71.5495 29.56 72.2535 26.3813 73.6615 23.608C75.1122 20.8347 77.0535 18.7013 79.4855 17.208C81.9602 15.7147 84.7122 14.968 87.7415 14.968C90.3868 14.968 92.6908 15.5013 94.6535 16.568C96.6588 17.6347 98.2588 18.9787 99.4535 20.6V15.544H108.478V51H99.4535V45.816C98.3015 47.48 96.7015 48.8667 94.6535 49.976C92.6482 51.0427 90.3228 51.576 87.6775 51.576C84.6908 51.576 81.9602 50.808 79.4855 49.272C77.0535 47.736 75.1122 45.5813 73.6615 42.808C72.2535 39.992 71.5495 36.7707 71.5495 33.144ZM99.4535 33.272C99.4535 31.096 99.0268 29.24 98.1735 27.704C97.3202 26.1253 96.1682 24.9307 94.7175 24.12C93.2668 23.2667 91.7095 22.84 90.0455 22.84C88.3815 22.84 86.8455 23.2453 85.4375 24.056C84.0295 24.8667 82.8775 26.0613 81.9815 27.64C81.1282 29.176 80.7015 31.0107 80.7015 33.144C80.7015 35.2773 81.1282 37.1547 81.9815 38.776C82.8775 40.3547 84.0295 41.5707 85.4375 42.424C86.8882 43.2773 88.4242 43.704 90.0455 43.704C91.7095 43.704 93.2668 43.2987 94.7175 42.488C96.1682 41.6347 97.3202 40.44 98.1735 38.904C99.0268 37.3253 99.4535 35.448 99.4535 33.272ZM127.661 22.904V40.056C127.661 41.2507 127.938 42.1253 128.493 42.68C129.09 43.192 130.071 43.448 131.437 43.448H135.597V51H129.965C122.413 51 118.637 47.3307 118.637 39.992V22.904H114.413V15.544H118.637V6.776H127.661V15.544H135.597V22.904H127.661ZM175.513 15.544V51H166.489V46.52C165.337 48.056 163.822 49.272 161.945 50.168C160.11 51.0213 158.105 51.448 155.929 51.448C153.156 51.448 150.702 50.872 148.569 49.72C146.436 48.5253 144.75 46.7973 143.513 44.536C142.318 42.232 141.721 39.5013 141.721 36.344V15.544H150.681V35.064C150.681 37.88 151.385 40.056 152.793 41.592C154.201 43.0853 156.121 43.832 158.553 43.832C161.028 43.832 162.969 43.0853 164.377 41.592C165.785 40.056 166.489 37.88 166.489 35.064V15.544H175.513ZM193.314 21.048C194.466 19.1707 195.959 17.6987 197.794 16.632C199.671 15.5653 201.804 15.032 204.194 15.032V24.44H201.826C199.01 24.44 196.876 25.1013 195.426 26.424C194.018 27.7467 193.314 30.0507 193.314 33.336V51H184.354V15.544H193.314V21.048ZM243.189 32.504C243.189 33.784 243.103 34.936 242.933 35.96H217.013C217.226 38.52 218.122 40.5253 219.701 41.976C221.279 43.4267 223.221 44.152 225.525 44.152C228.853 44.152 231.221 42.7227 232.629 39.864H242.293C241.269 43.2773 239.306 46.0933 236.405 48.312C233.503 50.488 229.941 51.576 225.717 51.576C222.303 51.576 219.231 50.8293 216.501 49.336C213.813 47.8 211.701 45.6453 210.165 42.872C208.671 40.0987 207.924 36.8987 207.924 33.272C207.924 29.6027 208.671 26.3813 210.165 23.608C211.658 20.8347 213.749 18.7013 216.437 17.208C219.125 15.7147 222.218 14.968 225.717 14.968C229.087 14.968 232.095 15.6933 234.741 17.144C237.429 18.5947 239.498 20.664 240.949 23.352C242.442 25.9973 243.189 29.048 243.189 32.504ZM233.909 29.944C233.866 27.64 233.034 25.8053 231.413 24.44C229.791 23.032 227.807 22.328 225.461 22.328C223.242 22.328 221.365 23.0107 219.829 24.376C218.335 25.6987 217.418 27.5547 217.077 29.944H233.909ZM247.424 33.144C247.424 29.56 248.128 26.3813 249.536 23.608C250.987 20.8347 252.95 18.7013 255.425 17.208C257.899 15.7147 260.651 14.968 263.681 14.968C265.985 14.968 268.182 15.48 270.273 16.504C272.363 17.4853 274.027 18.808 275.265 20.472V3.64H284.353V51H275.265V45.752C274.155 47.5013 272.598 48.9093 270.593 49.976C268.587 51.0427 266.262 51.576 263.617 51.576C260.63 51.576 257.899 50.808 255.425 49.272C252.95 47.736 250.987 45.5813 249.536 42.808C248.128 39.992 247.424 36.7707 247.424 33.144ZM275.329 33.272C275.329 31.096 274.902 29.24 274.049 27.704C273.195 26.1253 272.043 24.9307 270.593 24.12C269.142 23.2667 267.585 22.84 265.921 22.84C264.257 22.84 262.721 23.2453 261.312 24.056C259.905 24.8667 258.753 26.0613 257.857 27.64C257.003 29.176 256.577 31.0107 256.577 33.144C256.577 35.2773 257.003 37.1547 257.857 38.776C258.753 40.3547 259.905 41.5707 261.312 42.424C262.763 43.2773 264.299 43.704 265.921 43.704C267.585 43.704 269.142 43.2987 270.593 42.488C272.043 41.6347 273.195 40.44 274.049 38.904C274.902 37.3253 275.329 35.448 275.329 33.272ZM340.93 20.152C340.93 22.5413 340.354 24.7813 339.201 26.872C338.092 28.9627 336.322 30.648 333.89 31.928C331.5 33.208 328.471 33.848 324.802 33.848H317.314V51H308.354V6.328H324.802C328.258 6.328 331.202 6.92533 333.634 8.12C336.066 9.31467 337.879 10.9573 339.074 13.048C340.311 15.1387 340.93 17.5067 340.93 20.152ZM324.418 26.616C326.892 26.616 328.727 26.0613 329.922 24.952C331.116 23.8 331.714 22.2 331.714 20.152C331.714 15.8 329.282 13.624 324.418 13.624H317.314V26.616H324.418ZM356.251 21.048C357.403 19.1707 358.896 17.6987 360.731 16.632C362.608 15.5653 364.742 15.032 367.131 15.032V24.44H364.763C361.947 24.44 359.814 25.1013 358.363 26.424C356.955 27.7467 356.251 30.0507 356.251 33.336V51H347.291V15.544H356.251V21.048ZM388.91 51.576C385.497 51.576 382.425 50.8293 379.694 49.336C376.963 47.8 374.809 45.6453 373.23 42.872C371.694 40.0987 370.926 36.8987 370.926 33.272C370.926 29.6453 371.715 26.4453 373.294 23.672C374.915 20.8987 377.113 18.7653 379.886 17.272C382.659 15.736 385.753 14.968 389.166 14.968C392.579 14.968 395.673 15.736 398.446 17.272C401.219 18.7653 403.395 20.8987 404.974 23.672C406.595 26.4453 407.406 29.6453 407.406 33.272C407.406 36.8987 406.574 40.0987 404.91 42.872C403.289 45.6453 401.07 47.8 398.254 49.336C395.481 50.8293 392.366 51.576 388.91 51.576ZM388.91 43.768C390.531 43.768 392.046 43.384 393.454 42.616C394.905 41.8053 396.057 40.6107 396.91 39.032C397.763 37.4533 398.19 35.5333 398.19 33.272C398.19 29.9013 397.294 27.32 395.502 25.528C393.753 23.6933 391.598 22.776 389.038 22.776C386.478 22.776 384.323 23.6933 382.574 25.528C380.867 27.32 380.014 29.9013 380.014 33.272C380.014 36.6427 380.846 39.2453 382.51 41.08C384.217 42.872 386.35 43.768 388.91 43.768ZM418.523 11.32C416.901 11.32 415.557 10.8293 414.491 9.848C413.467 8.824 412.955 7.56533 412.955 6.072C412.955 4.57866 413.467 3.34133 414.491 2.36C415.557 1.336 416.901 0.823997 418.523 0.823997C420.101 0.823997 421.403 1.336 422.427 2.36C423.451 3.34133 423.963 4.57866 423.963 6.072C423.963 7.56533 423.451 8.824 422.427 9.848C421.403 10.8293 420.101 11.32 418.523 11.32ZM422.939 56.824C422.939 60.7493 421.957 63.5653 419.995 65.272C418.075 67.0213 415.301 67.896 411.674 67.896H407.706V60.28H410.267C411.632 60.28 412.592 60.0027 413.147 59.448C413.701 58.936 413.979 58.0827 413.979 56.888V15.544H422.939V56.824ZM464.751 32.504C464.751 33.784 464.666 34.936 464.495 35.96H438.575C438.788 38.52 439.684 40.5253 441.263 41.976C442.842 43.4267 444.783 44.152 447.087 44.152C450.415 44.152 452.783 42.7227 454.191 39.864H463.855C462.831 43.2773 460.868 46.0933 457.967 48.312C455.066 50.488 451.503 51.576 447.279 51.576C443.866 51.576 440.794 50.8293 438.063 49.336C435.375 47.8 433.263 45.6453 431.727 42.872C430.234 40.0987 429.487 36.8987 429.487 33.272C429.487 29.6027 430.234 26.3813 431.727 23.608C433.22 20.8347 435.311 18.7013 437.999 17.208C440.687 15.7147 443.78 14.968 447.279 14.968C450.65 14.968 453.658 15.6933 456.303 17.144C458.991 18.5947 461.06 20.664 462.511 23.352C464.004 25.9973 464.751 29.048 464.751 32.504ZM455.471 29.944C455.428 27.64 454.596 25.8053 452.975 24.44C451.354 23.032 449.37 22.328 447.023 22.328C444.804 22.328 442.927 23.0107 441.391 24.376C439.898 25.6987 438.98 27.5547 438.639 29.944H455.471ZM468.987 33.272C468.987 29.6027 469.734 26.4027 471.227 23.672C472.72 20.8987 474.79 18.7653 477.435 17.272C480.08 15.736 483.11 14.968 486.523 14.968C490.918 14.968 494.544 16.0773 497.403 18.296C500.304 20.472 502.246 23.544 503.227 27.512H493.563C493.051 25.976 492.176 24.7813 490.939 23.928C489.744 23.032 488.251 22.584 486.459 22.584C483.899 22.584 481.872 23.5227 480.379 25.4C478.886 27.2347 478.139 29.8587 478.139 33.272C478.139 36.6427 478.886 39.2667 480.379 41.144C481.872 42.9787 483.899 43.896 486.459 43.896C490.086 43.896 492.454 42.2747 493.563 39.032H503.227C502.246 42.872 500.304 45.9227 497.403 48.184C494.502 50.4453 490.875 51.576 486.523 51.576C483.11 51.576 480.08 50.8293 477.435 49.336C474.79 47.8 472.72 45.6667 471.227 42.936C469.734 40.1627 468.987 36.9413 468.987 33.272ZM520.223 22.904V40.056C520.223 41.2507 520.5 42.1253 521.055 42.68C521.652 43.192 522.634 43.448 523.999 43.448H528.159V51H522.527C514.975 51 511.199 47.3307 511.199 39.992V22.904H506.975V15.544H511.199V6.776H520.223V15.544H528.159V22.904H520.223Z" fill="#191A19"/>
</svg>
